{
  "accessors": [
    {
      "bufferView": 2,
      "componentType": 5126,
      "count": 20999,
      "max": [
        3.3743491172790527,
        0.34741801023483276,
        2.432584047317505
      ],
      "min": [
        -2.58353590965271,
        -3.321568012237549,
        -0.0932610034942627
      ],
      "type": "VEC3"
    },
    {
      "bufferView": 2,
      "byteOffset": 251988,
      "componentType": 5126,
      "count": 20999,
      "max": [
        0.999980092048645,
        0.999936580657959,
        0.9996263384819031
      ],
      "min": [
        -0.999468982219696,
        -0.9999456405639648,
        -0.9999676942825317
      ],
      "type": "VEC3"
    },
    {
      "bufferView": 1,
      "componentType": 5126,
      "count": 20999,
      "max": [
        1.0,
        0.98745197057724
      ],
      "min": [
        0.0,
        0.0
      ],
      "type": "VEC2"
    },
    {
      "bufferView": 0,
      "componentType": 5125,
      "count": 102570,
      "type": "SCALAR"
    }
  ],
  "asset": {
    "extras": {
      "author": "wozniakowski.smierdzi (https://sketchfab.com/wozniakowski.smierdzi)",
      "license": "CC-BY-4.0 (http://creativecommons.org/licenses/by/4.0/)",
      "source": "https://sketchfab.com/3d-models/newborn-59f3a37662d24521b3e706c025c0fd9c",
      "title": "Newborn"
    },
    "generator": "Sketchfab-12.64.0",
    "version": "2.0"
  },
  "bufferViews": [
    {
      "buffer": 0,
      "byteLength": 410280,
      "name": "floatBufferViews",
      "target": 34963
    },
    {
      "buffer": 0,
      "byteLength": 167992,
      "byteOffset": 410280,
      "byteStride": 8,
      "name": "floatBufferViews",
      "target": 34962
    },
    {
      "buffer": 0,
      "byteLength": 503976,
      "byteOffset": 578272,
      "byteStride": 12,
      "name": "floatBufferViews",
      "target": 34962
    }
  ],
  "buffers": [
    {
      "byteLength": 1082248,
      "uri": "scene.bin"
    }
  ],
  "images": [
    {
      "uri": "textures/baby.001_baseColor.png"
    }
  ],
  "materials": [
    {
      "doubleSided": true,
      "name": "baby.001",
      "pbrMetallicRoughness": {
        "baseColorTexture": {
          "index": 0
        },
        "metallicFactor": 0.0,
        "roughnessFactor": 0.5009304737845905
      }
    }
  ],
  "meshes": [
    {
      "name": "Object_0",
      "primitives": [
        {
          "attributes": {
            "NORMAL": 1,
            "POSITION": 0,
            "TEXCOORD_0": 2
          },
          "indices": 3,
          "material": 0,
          "mode": 4
        }
      ]
    }
  ],
  "nodes": [
    {
      "children": [
        1
      ],
      "matrix": [
        -9.200099972672806e-17,
        -5.287708528720997e-17,
        0.1381118893623352,
        0.0,
        0.1381118893623352,
        -8.354408702401499e-17,
        9.200099972672804e-17,
        0.0,
        8.354408702401496e-17,
        0.1381118893623352,
        5.287708528720997e-17,
        0.0,
        1.882482886314392,
        -1.1305779675015062e-15,
        1.0916705131530762,
        1.0
      ],
      "name": "Sketchfab_model"
    },
    {
      "children": [
        2
      ],
      "name": "dziecko.obj.cleaner.materialmerger.gles"
    },
    {
      "mesh": 0,
      "name": "Object_2"
    }
  ],
  "samplers": [
    {
      "magFilter": 9729,
      "minFilter": 9987,
      "wrapS": 10497,
      "wrapT": 10497
    }
  ],
  "scene": 0,
  "scenes": [
    {
      "name": "Sketchfab_Scene",
      "nodes": [
        0
      ]
    }
  ],
  "textures": [
    {
      "sampler": 0,
      "source": 0
    }
  ]
}
