{
  "accessors": [
    {
      "bufferView": 2,
      "componentType": 5126,
      "count": 65532,
      "max": [
        69.590675354003906,
        -0.36284101009368896,
        37.171585083007812
      ],
      "min": [
        -19.584978103637695,
        -44.433494567871094,
        -9.4999837875366211
      ],
      "type": "VEC3"
    },
    {
      "bufferView": 2,
      "byteOffset": 786384,
      "componentType": 5126,
      "count": 65532,
      "max": [
        0.99998795986175537,
        0.99999970197677612,
        0.99999982118606567
      ],
      "min": [
        -0.99989640712738037,
        -1,
        -0.99997174739837646
      ],
      "type": "VEC3"
    },
    {
      "bufferView": 3,
      "componentType": 5126,
      "count": 65532,
      "max": [
        0.99989330768585205,
        0.9999997615814209,
        0.99999880790710449,
        1
      ],
      "min": [
        -1,
        -0.99999898672103882,
        -0.99994575977325439,
        -1
      ],
      "type": "VEC4"
    },
    {
      "bufferView": 1,
      "componentType": 5126,
      "count": 65532,
      "max": [
        0.98784399032592773,
        0.98268800973892212
      ],
      "min": [
        0.0019529999699443579,
        0.0019529999699443579
      ],
      "type": "VEC2"
    },
    {
      "bufferView": 0,
      "componentType": 5125,
      "count": 264750,
      "max": [
        65531
      ],
      "min": [
        0
      ],
      "type": "SCALAR"
    },
    {
      "bufferView": 2,
      "byteOffset": 1572768,
      "componentType": 5126,
      "count": 65532,
      "max": [
        80.414993286132812,
        -0.36284101009368896,
        34.261569976806641
      ],
      "min": [
        -19.497198104858398,
        -44.433494567871094,
        -18.788311004638672
      ],
      "type": "VEC3"
    },
    {
      "bufferView": 2,
      "byteOffset": 2359152,
      "componentType": 5126,
      "count": 65532,
      "max": [
        0.99998438358306885,
        0.99999481439590454,
        0.99999451637268066
      ],
      "min": [
        -0.99997878074645996,
        -1,
        -0.99999982118606567
      ],
      "type": "VEC3"
    },
    {
      "bufferView": 3,
      "byteOffset": 1048512,
      "componentType": 5126,
      "count": 65532,
      "max": [
        0.99989402294158936,
        0.99999988079071045,
        0.99998670816421509,
        1
      ],
      "min": [
        -1,
        -0.99999898672103882,
        -0.99999868869781494,
        -1
      ],
      "type": "VEC4"
    },
    {
      "bufferView": 1,
      "byteOffset": 524256,
      "componentType": 5126,
      "count": 65532,
      "max": [
        0.98784399032592773,
        0.98268800973892212
      ],
      "min": [
        0.0019529999699443579,
        0.0019529999699443579
      ],
      "type": "VEC2"
    },
    {
      "bufferView": 0,
      "byteOffset": 1059000,
      "componentType": 5125,
      "count": 265323,
      "max": [
        65531
      ],
      "min": [
        0
      ],
      "type": "SCALAR"
    },
    {
      "bufferView": 2,
      "byteOffset": 3145536,
      "componentType": 5126,
      "count": 65532,
      "max": [
        79.381515502929688,
        -0.54984200000762939,
        37.248336791992188
      ],
      "min": [
        -18.709266662597656,
        -44.845809936523438,
        -18.865060806274414
      ],
      "type": "VEC3"
    },
    {
      "bufferView": 2,
      "byteOffset": 3931920,
      "componentType": 5126,
      "count": 65532,
      "max": [
        0.99999314546585083,
        0.99998646974563599,
        0.9999968409538269
      ],
      "min": [
        -0.99999260902404785,
        -0.99999052286148071,
        -0.99999690055847168
      ],
      "type": "VEC3"
    },
    {
      "bufferView": 3,
      "byteOffset": 2097024,
      "componentType": 5126,
      "count": 65532,
      "max": [
        0.99952894449234009,
        0.9999927282333374,
        0.99997586011886597,
        1
      ],
      "min": [
        -0.9999653697013855,
        -0.99999862909317017,
        -0.99999135732650757,
        -1
      ],
      "type": "VEC4"
    },
    {
      "bufferView": 1,
      "byteOffset": 1048512,
      "componentType": 5126,
      "count": 65532,
      "max": [
        0.98594200611114502,
        0.97900199890136719
      ],
      "min": [
        0.0021180000621825457,
        0.012350000441074371
      ],
      "type": "VEC2"
    },
    {
      "bufferView": 0,
      "byteOffset": 2120292,
      "componentType": 5125,
      "count": 263787,
      "max": [
        65531
      ],
      "min": [
        0
      ],
      "type": "SCALAR"
    },
    {
      "bufferView": 2,
      "byteOffset": 4718304,
      "componentType": 5126,
      "count": 65532,
      "max": [
        77.899208068847656,
        -0.34835100173950195,
        36.949993133544922
      ],
      "min": [
        -19.497198104858398,
        -44.757488250732422,
        -18.566713333129883
      ],
      "type": "VEC3"
    },
    {
      "bufferView": 2,
      "byteOffset": 5504688,
      "componentType": 5126,
      "count": 65532,
      "max": [
        0.99999326467514038,
        0.99999570846557617,
        0.99995863437652588
      ],
      "min": [
        -0.99991261959075928,
        -1,
        -0.99995869398117065
      ],
      "type": "VEC3"
    },
    {
      "bufferView": 3,
      "byteOffset": 3145536,
      "componentType": 5126,
      "count": 65532,
      "max": [
        0.99949681758880615,
        0.99998718500137329,
        0.99999880790710449,
        1
      ],
      "min": [
        -1,
        -0.99999916553497314,
        -0.99999868869781494,
        -1
      ],
      "type": "VEC4"
    },
    {
      "bufferView": 1,
      "byteOffset": 1572768,
      "componentType": 5126,
      "count": 65532,
      "max": [
        0.95706599950790405,
        0.9597020149230957
      ],
      "min": [
        0.023236000910401344,
        0.023198999464511871
      ],
      "type": "VEC2"
    },
    {
      "bufferView": 0,
      "byteOffset": 3175440,
      "componentType": 5125,
      "count": 250527,
      "max": [
        65531
      ],
      "min": [
        0
      ],
      "type": "SCALAR"
    },
    {
      "bufferView": 2,
      "byteOffset": 6291072,
      "componentType": 5126,
      "count": 65532,
      "max": [
        80.216011047363281,
        -0.38233000040054321,
        37.210845947265625
      ],
      "min": [
        -19.516931533813477,
        -44.812595367431641,
        -18.827566146850586
      ],
      "type": "VEC3"
    },
    {
      "bufferView": 2,
      "byteOffset": 7077456,
      "componentType": 5126,
      "count": 65532,
      "max": [
        0.99999326467514038,
        1,
        0.99999862909317017
      ],
      "min": [
        -0.99984472990036011,
        -0.99999499320983887,
        -0.99999856948852539
      ],
      "type": "VEC3"
    },
    {
      "bufferView": 3,
      "byteOffset": 4194048,
      "componentType": 5126,
      "count": 65532,
      "max": [
        0.99998944997787476,
        0.9999733567237854,
        0.99999946355819702,
        1
      ],
      "min": [
        -0.99999994039535522,
        -0.99999934434890747,
        -0.9999995231628418,
        -1
      ],
      "type": "VEC4"
    },
    {
      "bufferView": 1,
      "byteOffset": 2097024,
      "componentType": 5126,
      "count": 65532,
      "max": [
        0.97992897033691406,
        0.97101199626922607
      ],
      "min": [
        0.007009000051766634,
        0.028960999101400375
      ],
      "type": "VEC2"
    },
    {
      "bufferView": 0,
      "byteOffset": 4177548,
      "componentType": 5125,
      "count": 223704,
      "max": [
        65531
      ],
      "min": [
        0
      ],
      "type": "SCALAR"
    },
    {
      "bufferView": 2,
      "byteOffset": 7863840,
      "componentType": 5126,
      "count": 65532,
      "max": [
        79.620460510253906,
        -0.34322899580001831,
        37.168014526367188
      ],
      "min": [
        -18.789545059204102,
        -44.845809936523438,
        -18.784732818603516
      ],
      "type": "VEC3"
    },
    {
      "bufferView": 2,
      "byteOffset": 8650224,
      "componentType": 5126,
      "count": 65532,
      "max": [
        0.99998712539672852,
        0.99999970197677612,
        0.99999862909317017
      ],
      "min": [
        -0.999958336353302,
        -0.99999183416366577,
        -0.99999856948852539
      ],
      "type": "VEC3"
    },
    {
      "bufferView": 3,
      "byteOffset": 5242560,
      "componentType": 5126,
      "count": 65532,
      "max": [
        0.99970000982284546,
        0.99998718500137329,
        0.99999171495437622,
        1
      ],
      "min": [
        -0.99999970197677612,
        -0.9999995231628418,
        -0.99999135732650757,
        -1
      ],
      "type": "VEC4"
    },
    {
      "bufferView": 1,
      "byteOffset": 2621280,
      "componentType": 5126,
      "count": 65532,
      "max": [
        0.9728819727897644,
        0.98014301061630249
      ],
      "min": [
        0.0050989999435842037,
        0.013775999657809734
      ],
      "type": "VEC2"
    },
    {
      "bufferView": 0,
      "byteOffset": 5072364,
      "componentType": 5125,
      "count": 165768,
      "max": [
        65531
      ],
      "min": [
        0
      ],
      "type": "SCALAR"
    },
    {
      "bufferView": 2,
      "byteOffset": 9436608,
      "componentType": 5126,
      "count": 46482,
      "max": [
        80.254539489746094,
        -0.36284101009368896,
        37.248336791992188
      ],
      "min": [
        -19.55396842956543,
        -44.815200805664062,
        -18.865060806274414
      ],
      "type": "VEC3"
    },
    {
      "bufferView": 2,
      "byteOffset": 9994392,
      "componentType": 5126,
      "count": 46482,
      "max": [
        0.99999326467514038,
        0.99999552965164185,
        0.99997210502624512
      ],
      "min": [
        -0.99995684623718262,
        -0.99994349479675293,
        -0.99997210502624512
      ],
      "type": "VEC3"
    },
    {
      "bufferView": 3,
      "byteOffset": 6291072,
      "componentType": 5126,
      "count": 46482,
      "max": [
        0.9997674822807312,
        0.99999988079071045,
        0.99998146295547485,
        1
      ],
      "min": [
        -0.99999558925628662,
        -0.99999839067459106,
        -0.9999815821647644,
        -1
      ],
      "type": "VEC4"
    },
    {
      "bufferView": 1,
      "byteOffset": 3145536,
      "componentType": 5126,
      "count": 46482,
      "max": [
        0.9693940281867981,
        0.98023402690887451
      ],
      "min": [
        0.0021180000621825457,
        0.008919999934732914
      ],
      "type": "VEC2"
    },
    {
      "bufferView": 0,
      "byteOffset": 5735436,
      "componentType": 5125,
      "count": 66135,
      "max": [
        46481
      ],
      "min": [
        0
      ],
      "type": "SCALAR"
    }
  ],
  "asset": {
    "extras": {
      "author": "Aleksandr Kyrylko (https://sketchfab.com/aleksandrkantaaar)",
      "license": "CC-BY-4.0 (http://creativecommons.org/licenses/by/4.0/)",
      "source": "https://sketchfab.com/3d-models/dog-9c0d563fb8d946a398f86505eaf28119",
      "title": "Dog"
    },
    "generator": "Sketchfab-7.9.0",
    "version": "2.0"
  },
  "bufferViews": [
    {
      "buffer": 0,
      "byteLength": 5999976,
      "byteOffset": 0,
      "name": "floatBufferViews",
      "target": 34963
    },
    {
      "buffer": 0,
      "byteLength": 3517392,
      "byteOffset": 5999976,
      "byteStride": 8,
      "name": "floatBufferViews",
      "target": 34962
    },
    {
      "buffer": 0,
      "byteLength": 10552176,
      "byteOffset": 9517368,
      "byteStride": 12,
      "name": "floatBufferViews",
      "target": 34962
    },
    {
      "buffer": 0,
      "byteLength": 7034784,
      "byteOffset": 20069544,
      "byteStride": 16,
      "name": "floatBufferViews",
      "target": 34962
    }
  ],
  "buffers": [
    {
      "byteLength": 27104328,
      "uri": "scene.bin"
    }
  ],
  "images": [
    {
      "uri": "textures/mat0_baseColor.jpeg"
    }
  ],
  "materials": [
    {
      "doubleSided": true,
      "emissiveFactor": [
        0,
        0,
        0
      ],
      "name": "mat0",
      "pbrMetallicRoughness": {
        "baseColorFactor": [
          1,
          1,
          1,
          1
        ],
        "baseColorTexture": {
          "index": 0,
          "texCoord": 0
        },
        "metallicFactor": 0,
        "roughnessFactor": 0.683772233983162
      }
    }
  ],
  "meshes": [
    {
      "primitives": [
        {
          "attributes": {
            "NORMAL": 1,
            "POSITION": 0,
            "TANGENT": 2,
            "TEXCOORD_0": 3
          },
          "indices": 4,
          "material": 0,
          "mode": 4
        }
      ]
    },
    {
      "primitives": [
        {
          "attributes": {
            "NORMAL": 6,
            "POSITION": 5,
            "TANGENT": 7,
            "TEXCOORD_0": 8
          },
          "indices": 9,
          "material": 0,
          "mode": 4
        }
      ]
    },
    {
      "primitives": [
        {
          "attributes": {
            "NORMAL": 11,
            "POSITION": 10,
            "TANGENT": 12,
            "TEXCOORD_0": 13
          },
          "indices": 14,
          "material": 0,
          "mode": 4
        }
      ]
    },
    {
      "primitives": [
        {
          "attributes": {
            "NORMAL": 16,
            "POSITION": 15,
            "TANGENT": 17,
            "TEXCOORD_0": 18
          },
          "indices": 19,
          "material": 0,
          "mode": 4
        }
      ]
    },
    {
      "primitives": [
        {
          "attributes": {
            "NORMAL": 21,
            "POSITION": 20,
            "TANGENT": 22,
            "TEXCOORD_0": 23
          },
          "indices": 24,
          "material": 0,
          "mode": 4
        }
      ]
    },
    {
      "primitives": [
        {
          "attributes": {
            "NORMAL": 26,
            "POSITION": 25,
            "TANGENT": 27,
            "TEXCOORD_0": 28
          },
          "indices": 29,
          "material": 0,
          "mode": 4
        }
      ]
    },
    {
      "primitives": [
        {
          "attributes": {
            "NORMAL": 31,
            "POSITION": 30,
            "TANGENT": 32,
            "TEXCOORD_0": 33
          },
          "indices": 34,
          "material": 0,
          "mode": 4
        }
      ]
    }
  ],
  "nodes": [
    {
      "children": [
        1
      ],
      "name": "RootNode (gltf orientation matrix)",
      "rotation": [
        -0.70710678118654746,
        -0,
        -0,
        0.70710678118654757
      ]
    },
    {
      "children": [
        2
      ],
      "matrix": [
        -9.9920072216264089e-16,
        1,
        -3.3306690738754696e-16,
        0,
        -0.015392879955470562,
        -5.5511151231257827e-16,
        -0.99988150596618652,
        0,
        -0.99988150596618652,
        -7.7715611723760958e-16,
        0.015392879955470562,
        0,
        39.183032989501953,
        -52.934822082519531,
        -13.54746150970459,
        1
      ],
      "name": "RootNode (model correction matrix)"
    },
    {
      "children": [
        3,
        4,
        5,
        6,
        7,
        8,
        9
      ],
      "name": "dog_toy.obj.cleaner.materialmerger.gles"
    },
    {
      "mesh": 0,
      "name": ""
    },
    {
      "mesh": 1,
      "name": ""
    },
    {
      "mesh": 2,
      "name": ""
    },
    {
      "mesh": 3,
      "name": ""
    },
    {
      "mesh": 4,
      "name": ""
    },
    {
      "mesh": 5,
      "name": ""
    },
    {
      "mesh": 6,
      "name": ""
    }
  ],
  "samplers": [
    {
      "magFilter": 9729,
      "minFilter": 9987,
      "wrapS": 10497,
      "wrapT": 10497
    }
  ],
  "scene": 0,
  "scenes": [
    {
      "name": "OSG_Scene",
      "nodes": [
        0
      ]
    }
  ],
  "textures": [
    {
      "sampler": 0,
      "source": 0
    }
  ]
}

