{
  "accessors": [
    {
      "bufferView": 2,
      "componentType": 5126,
      "count": 2914,
      "max": [
        2.0641930103302,
        0.5424259901046753,
        -1.8205070495605469
      ],
      "min": [
        -2.06387996673584,
        -0.4184190034866333,
        -7.112458229064941
      ],
      "type": "VEC3"
    },
    {
      "bufferView": 2,
      "byteOffset": 34968,
      "componentType": 5126,
      "count": 2914,
      "max": [
        0.999691903591156,
        0.9997859597206116,
        0.9999973773956299
      ],
      "min": [
        -0.999688446521759,
        -0.9999017715454102,
        -0.9998078942298889
      ],
      "type": "VEC3"
    },
    {
      "bufferView": 1,
      "componentType": 5126,
      "count": 2914,
      "max": [
        0.9292529821395874,
        0.9507279992103577
      ],
      "min": [
        0.0004349999944679439,
        0.0004349999944679439
      ],
      "type": "VEC2"
    },
    {
      "bufferView": 0,
      "componentType": 5125,
      "count": 15762,
      "type": "SCALAR"
    },
    {
      "bufferView": 2,
      "byteOffset": 69936,
      "componentType": 5126,
      "count": 1447,
      "max": [
        1.7042189836502075,
        0.35606899857521057,
        -3.053148031234741
      ],
      "min": [
        -1.6551610231399536,
        -0.1717280000448227,
        -4.067556858062744
      ],
      "type": "VEC3"
    },
    {
      "bufferView": 2,
      "byteOffset": 87300,
      "componentType": 5126,
      "count": 1447,
      "max": [
        0.9971374273300171,
        0.9999480247497559,
        0.9353668093681335
      ],
      "min": [
        -0.9964345693588257,
        -0.999883770942688,
        -0.979503870010376
      ],
      "type": "VEC3"
    },
    {
      "bufferView": 1,
      "byteOffset": 23312,
      "componentType": 5126,
      "count": 1447,
      "max": [
        0.9092119932174683,
        0.9523299932479858
      ],
      "min": [
        0.21062499284744263,
        0.4035719931125641
      ],
      "type": "VEC2"
    },
    {
      "bufferView": 0,
      "byteOffset": 63048,
      "componentType": 5125,
      "count": 4860,
      "type": "SCALAR"
    },
    {
      "bufferView": 2,
      "byteOffset": 104664,
      "componentType": 5126,
      "count": 140,
      "max": [
        0.38387200236320496,
        0.5385609865188599,
        -1.8059769868850708
      ],
      "min": [
        -0.6218050122261047,
        -0.377470999956131,
        -4.489760875701904
      ],
      "type": "VEC3"
    },
    {
      "bufferView": 2,
      "byteOffset": 106344,
      "componentType": 5126,
      "count": 140,
      "max": [
        0.9957115054130554,
        0.9999898672103882,
        0.9661418795585632
      ],
      "min": [
        -0.9900174736976624,
        -0.995033323764801,
        -0.08410068601369858
      ],
      "type": "VEC3"
    },
    {
      "bufferView": 1,
      "byteOffset": 34888,
      "componentType": 5126,
      "count": 140,
      "max": [
        0.6348680257797241,
        0.5859010219573975
      ],
      "min": [
        0.37755098938941956,
        0.3034200072288513
      ],
      "type": "VEC2"
    },
    {
      "bufferView": 0,
      "byteOffset": 82488,
      "componentType": 5125,
      "count": 612,
      "type": "SCALAR"
    },
    {
      "bufferView": 2,
      "byteOffset": 108024,
      "componentType": 5126,
      "count": 2608,
      "max": [
        2.474756956100464,
        1.145298957824707,
        -1.0581029653549194
      ],
      "min": [
        -1.9454710483551025,
        -0.9285269975662231,
        -7.058350086212158
      ],
      "type": "VEC3"
    },
    {
      "bufferView": 2,
      "byteOffset": 139320,
      "componentType": 5126,
      "count": 2608,
      "max": [
        0.9982945322990417,
        0.9995366930961609,
        0.99961918592453
      ],
      "min": [
        -0.9995678067207336,
        -0.9995610117912292,
        -0.9999969005584717
      ],
      "type": "VEC3"
    },
    {
      "bufferView": 1,
      "byteOffset": 36008,
      "componentType": 5126,
      "count": 2608,
      "max": [
        0.9995650053024292,
        0.964152991771698
      ],
      "min": [
        0.0004349999944679439,
        0.0004349999944679439
      ],
      "type": "VEC2"
    },
    {
      "bufferView": 0,
      "byteOffset": 84936,
      "componentType": 5125,
      "count": 13407,
      "type": "SCALAR"
    },
    {
      "bufferView": 2,
      "byteOffset": 170616,
      "componentType": 5126,
      "count": 2077,
      "max": [
        2.5194270610809326,
        1.1871329545974731,
        -1.0677590370178223
      ],
      "min": [
        -1.9694629907608032,
        -0.9344390034675598,
        -6.348299980163574
      ],
      "type": "VEC3"
    },
    {
      "bufferView": 2,
      "byteOffset": 195540,
      "componentType": 5126,
      "count": 2077,
      "max": [
        0.9993519186973572,
        0.9974266290664673,
        0.9999945163726807
      ],
      "min": [
        -0.9966403841972351,
        -0.9996369481086731,
        -0.999333381652832
      ],
      "type": "VEC3"
    },
    {
      "bufferView": 1,
      "byteOffset": 56872,
      "componentType": 5126,
      "count": 2077,
      "max": [
        0.9591479897499084,
        0.964152991771698
      ],
      "min": [
        0.0004349999944679439,
        0.0004349999944679439
      ],
      "type": "VEC2"
    },
    {
      "bufferView": 0,
      "byteOffset": 138564,
      "componentType": 5125,
      "count": 11010,
      "type": "SCALAR"
    },
    {
      "bufferView": 2,
      "byteOffset": 220464,
      "componentType": 5126,
      "count": 36,
      "max": [
        3.1323471069335938,
        1.0044989585876465,
        -0.7517129778862
      ],
      "min": [
        -2.297499895095825,
        -1.8340990543365479,
        -6.76070499420166
      ],
      "type": "VEC3"
    },
    {
      "bufferView": 2,
      "byteOffset": 220896,
      "componentType": 5126,
      "count": 36,
      "max": [
        -0.03779980167746544,
        0.2798108160495758,
        0.5881134867668152
      ],
      "min": [
        -0.9377362132072449,
        -0.9497182369232178,
        0.0
      ],
      "type": "VEC3"
    },
    {
      "bufferView": 1,
      "byteOffset": 73488,
      "componentType": 5126,
      "count": 36,
      "max": [
        0.9997270107269287,
        0.9997270107269287
      ],
      "min": [
        0.0002730000123847276,
        0.0002730000123847276
      ],
      "type": "VEC2"
    },
    {
      "bufferView": 0,
      "byteOffset": 182604,
      "componentType": 5125,
      "count": 54,
      "type": "SCALAR"
    }
  ],
  "asset": {
    "extras": {
      "author": "Coffeek (https://sketchfab.com/coffe0wolf)",
      "license": "CC-BY-4.0 (http://creativecommons.org/licenses/by/4.0/)",
      "source": "https://sketchfab.com/3d-models/mycena-a-posed-1c22f83964d0489fa7bbbbf442d32f8c",
      "title": "Mycena A-posed"
    },
    "generator": "Sketchfab-12.61.0",
    "version": "2.0"
  },
  "bufferViews": [
    {
      "buffer": 0,
      "byteLength": 182820,
      "name": "floatBufferViews",
      "target": 34963
    },
    {
      "buffer": 0,
      "byteLength": 73776,
      "byteOffset": 182820,
      "byteStride": 8,
      "name": "floatBufferViews",
      "target": 34962
    },
    {
      "buffer": 0,
      "byteLength": 221328,
      "byteOffset": 256596,
      "byteStride": 12,
      "name": "floatBufferViews",
      "target": 34962
    }
  ],
  "buffers": [
    {
      "byteLength": 477924,
      "uri": "scene.bin"
    }
  ],
  "images": [
    {
      "uri": "textures/body.001_baseColor.png"
    },
    {
      "uri": "textures/bones.001_baseColor.png"
    },
    {
      "uri": "textures/hair.001_baseColor.png"
    },
    {
      "uri": "textures/mushrooms.001_baseColor.png"
    },
    {
      "uri": "textures/outline_baseColor.png"
    },
    {
      "uri": "textures/things_baseColor.png"
    }
  ],
  "materials": [
    {
      "alphaMode": "BLEND",
      "doubleSided": true,
      "name": "body.001",
      "pbrMetallicRoughness": {
        "baseColorTexture": {
          "index": 0
        },
        "metallicFactor": 0.0,
        "roughnessFactor": 0.6
      }
    },
    {
      "alphaMode": "BLEND",
      "doubleSided": true,
      "name": "bones.001",
      "pbrMetallicRoughness": {
        "baseColorTexture": {
          "index": 1
        },
        "metallicFactor": 0.0,
        "roughnessFactor": 0.6
      }
    },
    {
      "alphaMode": "BLEND",
      "doubleSided": true,
      "name": "hair.001",
      "pbrMetallicRoughness": {
        "baseColorTexture": {
          "index": 2
        },
        "metallicFactor": 0.0,
        "roughnessFactor": 0.6
      }
    },
    {
      "doubleSided": true,
      "name": "mushrooms.001",
      "pbrMetallicRoughness": {
        "baseColorTexture": {
          "index": 3
        },
        "metallicFactor": 0.0,
        "roughnessFactor": 0.6
      }
    },
    {
      "name": "outline",
      "pbrMetallicRoughness": {
        "baseColorTexture": {
          "index": 4
        },
        "metallicFactor": 0.0,
        "roughnessFactor": 0.6
      }
    },
    {
      "alphaMode": "BLEND",
      "doubleSided": true,
      "name": "things",
      "pbrMetallicRoughness": {
        "baseColorTexture": {
          "index": 5
        },
        "metallicFactor": 0.0,
        "roughnessFactor": 0.6
      }
    }
  ],
  "meshes": [
    {
      "name": "Object_0",
      "primitives": [
        {
          "attributes": {
            "NORMAL": 1,
            "POSITION": 0,
            "TEXCOORD_0": 2
          },
          "indices": 3,
          "material": 0,
          "mode": 4
        }
      ]
    },
    {
      "name": "Object_1",
      "primitives": [
        {
          "attributes": {
            "NORMAL": 5,
            "POSITION": 4,
            "TEXCOORD_0": 6
          },
          "indices": 7,
          "material": 1,
          "mode": 4
        }
      ]
    },
    {
      "name": "Object_2",
      "primitives": [
        {
          "attributes": {
            "NORMAL": 9,
            "POSITION": 8,
            "TEXCOORD_0": 10
          },
          "indices": 11,
          "material": 2,
          "mode": 4
        }
      ]
    },
    {
      "name": "Object_3",
      "primitives": [
        {
          "attributes": {
            "NORMAL": 13,
            "POSITION": 12,
            "TEXCOORD_0": 14
          },
          "indices": 15,
          "material": 3,
          "mode": 4
        }
      ]
    },
    {
      "name": "Object_4",
      "primitives": [
        {
          "attributes": {
            "NORMAL": 17,
            "POSITION": 16,
            "TEXCOORD_0": 18
          },
          "indices": 19,
          "material": 4,
          "mode": 4
        }
      ]
    },
    {
      "name": "Object_5",
      "primitives": [
        {
          "attributes": {
            "NORMAL": 21,
            "POSITION": 20,
            "TEXCOORD_0": 22
          },
          "indices": 23,
          "material": 5,
          "mode": 4
        }
      ]
    }
  ],
  "nodes": [
    {
      "children": [
        1
      ],
      "matrix": [
        1.0,
        0.0,
        0.0,
        0.0,
        0.0,
        2.220446049250313e-16,
        -1.0,
        0.0,
        0.0,
        1.0,
        2.220446049250313e-16,
        0.0,
        0.0,
        0.0,
        0.0,
        1.0
      ],
      "name": "Sketchfab_model"
    },
    {
      "children": [
        2,
        3,
        4,
        5,
        6,
        7
      ],
      "name": "mushroom_girl.obj.cleaner.materialmerger.gles"
    },
    {
      "mesh": 0,
      "name": "Object_2"
    },
    {
      "mesh": 1,
      "name": "Object_3"
    },
    {
      "mesh": 2,
      "name": "Object_4"
    },
    {
      "mesh": 3,
      "name": "Object_5"
    },
    {
      "mesh": 4,
      "name": "Object_6"
    },
    {
      "mesh": 5,
      "name": "Object_7"
    }
  ],
  "samplers": [
    {
      "magFilter": 9729,
      "minFilter": 9987,
      "wrapS": 10497,
      "wrapT": 10497
    }
  ],
  "scene": 0,
  "scenes": [
    {
      "name": "Sketchfab_Scene",
      "nodes": [
        0
      ]
    }
  ],
  "textures": [
    {
      "sampler": 0,
      "source": 0
    },
    {
      "sampler": 0,
      "source": 1
    },
    {
      "sampler": 0,
      "source": 2
    },
    {
      "sampler": 0,
      "source": 3
    },
    {
      "sampler": 0,
      "source": 4
    },
    {
      "sampler": 0,
      "source": 5
    }
  ]
}
